<?xml version="1.0" encoding="utf-8"?>
<!-- Generator: Adobe Illustrator 22.1.0, SVG Export Plug-In . SVG Version: 6.00 Build 0)  -->
<svg version="1.1" id="Layer_1" xmlns="http://www.w3.org/2000/svg" xmlns:xlink="http://www.w3.org/1999/xlink" x="0px" y="0px"
	 viewBox="0 0 576.1 383.1" style="enable-background:new 0 0 576.1 383.1;" xml:space="preserve">
<style type="text/css">
	.st0{fill:#288CF7;}
	.st1{fill:#288CF7;stroke:#288CF7;stroke-miterlimit:10;}
	.st2{fill:#26293D;stroke:#288CF7;stroke-miterlimit:10;}
	.st3{fill:#288CF7;stroke:url(#SVGID_1_);stroke-miterlimit:10;}
</style>
<g>
	<path class="st0" d="M448.3,186.3c7.7-4.6,16.2-8,24.9-10.4c8.8-2.4,17.9-3.7,27-3.9c9.2-0.2,18.5,0.8,27.5,3.2s17.9,6.4,25.6,12.7
		l-6.7,7.5c-6.3-5.1-13.9-8.6-21.9-10.8s-16.4-3.1-24.8-3c-8.4,0.1-16.7,1.3-24.8,3.4c-8,2.1-15.7,5.3-22.7,9.3L448.3,186.3z"/>
</g>
<path class="st1" d="M563.7,382.6H13c-6.6,0-12-5.4-12-12V12.5c0-6.6,5.4-12,12-12h550.6c6.6,0,12,5.4,12,12v358.1
	C575.7,377.2,570.3,382.6,563.7,382.6z"/>
<path class="st2" d="M548.7,353h-520c-6.6,0-12-5.4-12-12V26.7c0-6.6,5.4-12,12-12h520c6.6,0,12,5.4,12,12V341
	C560.7,347.6,555.3,353,548.7,353z"/>
<path class="st1" d="M466.4,428.2H137.5c-6.6,0-12-5.4-12-12l0,0c0-6.6,5.4-12,12-12h328.9c6.6,0,12,5.4,12,12l0,0
	C478.4,422.8,473,428.2,466.4,428.2z"/>
<linearGradient id="SVGID_1_" gradientUnits="userSpaceOnUse" x1="44.5302" y1="142.7265" x2="275.9336" y2="142.7265" gradientTransform="matrix(-1.173110e-10 -1 -1 1.173110e-10 199.5265 359.3302)">
	<stop  offset="0" style="stop-color:#FFFFFF"/>
	<stop  offset="1" style="stop-color:#000000"/>
</linearGradient>
<path class="st3" d="M61.3,88.4v221.4c0,2.5-2,4.5-4.5,4.5l0,0c-2.5,0-4.5-2-4.5-4.5V88.4c0-2.5,2-4.5,4.5-4.5l0,0
	C59.2,83.8,61.3,85.9,61.3,88.4z"/>
<g>
	<ellipse class="st1" cx="403.1" cy="171.3" rx="9" ry="9"/>
	<ellipse class="st1" cx="320.3" cy="100.2" rx="8.6" ry="8.6"/>
	<ellipse class="st1" cx="243.6" cy="236.4" rx="8.6" ry="8.6"/>
	<polygon class="st1" points="321.2,100.2 319.9,99.4 243.6,231.8 244.9,232.5 	"/>
	<ellipse class="st1" cx="171.7" cy="174.6" rx="8.6" ry="8.6"/>
	<ellipse class="st1" cx="60.8" cy="229.9" rx="8.6" ry="8.6"/>
	<polygon class="st1" points="173.1,172.7 171.7,174.3 244.8,238.7 246.2,237.1 	"/>
	<polygon class="st1" points="324,100.2 322.6,101.8 395.7,166.2 397.1,164.6 	"/>
	
		<rect x="50.5" y="203" transform="matrix(0.8922 -0.4516 0.4516 0.8922 -79.7593 73.3565)" class="st1" width="126.6" height="1.6"/>
</g>
<path class="st1" d="M392.4,313.3H54c-0.5,0-1-0.4-1-1v-11.8c0-0.5,0.4-1,1-1h338.4c0.5,0,1,0.4,1,1v11.8
	C393.3,312.8,392.9,313.3,392.4,313.3z"/>
<path class="st1" d="M269.6,67H56.7c-2.3,0-4.2-1.9-4.2-4.2l0,0c0-2.3,1.9-4.2,4.2-4.2h212.9c2.3,0,4.2,1.9,4.2,4.2l0,0
	C273.8,65.1,271.9,67,269.6,67z"/>
<path class="st1" d="M269.6,40.1H56.7c-2.3,0-4.2-1.9-4.2-4.2l0,0c0-2.3,1.9-4.2,4.2-4.2h212.9c2.3,0,4.2,1.9,4.2,4.2l0,0
	C273.8,38.2,271.9,40.1,269.6,40.1z"/>
<polygon class="st0" points="188.1,222.1 188.1,222.1 188.1,222.1 "/>
<g>
	<g>
		<path class="st0" d="M418.7-34.9c7.5-4.4,15.6-7.6,24.1-9.9c8.4-2.3,17.2-3.5,26.1-3.8c8.8-0.2,17.8,0.7,26.6,2.9
			c8.7,2.3,17.4,6,24.9,12l-6.6,7.5c-6.1-4.8-13.5-8.1-21.2-10.2c-7.7-2-15.8-2.9-23.9-2.7c-8.1,0.1-16.1,1.3-23.9,3.3
			c-7.7,2-15.2,5-21.9,8.9L418.7-34.9z"/>
	</g>
	<g>
		<path class="st0" d="M404.4-58.3c10.2-5.8,21.4-10,32.9-12.8s23.4-4.1,35.4-4c11.9,0.1,24,1.7,35.6,5.1c11.6,3.4,23,8.7,32.7,16.7
			l-6.6,7.5c-8.4-6.9-18.6-11.8-29.2-14.9c-10.6-3.2-21.8-4.7-33-4.8c-11.2-0.1-22.3,1.1-33.1,3.6s-21.1,6.4-30.6,11.7L404.4-58.3z"
			/>
	</g>
	<g>
		<ellipse class="st0" cx="467.9" cy="102.7" rx="64.7" ry="8.5"/>
		<g>
			<ellipse class="st0" cx="466.8" cy="6.8" rx="33.5" ry="30.2"/>
			<path class="st0" d="M471.9,98.3h-10.2c-21.2,0-38.5-17.3-38.5-38.5V23.2c0-21.2,17.3-38.5,38.5-38.5h10.2
				c21.2,0,38.5,17.3,38.5,38.5v36.6C510.5,81,493.1,98.3,471.9,98.3z"/>
			<path class="st0" d="M481.6,108.6h-26.8c-21,0-38.2-17.2-38.2-38.2v-16c0-21,17.2-38.2,38.2-38.2h26.8c21,0,38.2,17.2,38.2,38.2
				v16C519.8,91.4,502.6,108.6,481.6,108.6z"/>
			<polyline class="st0" points="405.9,102.7 418.6,41.5 437.8,95.3 516.4,44.5 529.8,100.1 			"/>
			<polyline class="st0" points="418.6,41.5 427.5,11 452.8,56.2 506.2,11 516.4,44.5 472.6,81.8 			"/>
		</g>
		<polygon class="st0" points="436.7,120.9 490.7,120.9 488.2,125.8 483.3,130 475.9,134 467.4,136.7 462.1,136.7 454,134.6 
			446.6,131.5 441,127 		"/>
	</g>
</g>
</svg>
