<?xml version="1.0" encoding="utf-8"?>
<!-- Generator: Adobe Illustrator 22.1.0, SVG Export Plug-In . SVG Version: 6.00 Build 0)  -->
<svg version="1.1" id="Layer_1" xmlns="http://www.w3.org/2000/svg" xmlns:xlink="http://www.w3.org/1999/xlink" x="0px" y="0px"
	 viewBox="0 0 624.4 454.3" style="enable-background:new 0 0 624.4 454.3;" xml:space="preserve">
<style type="text/css">
	.st0{fill:#BC6557;}
	.st1{fill:#F28C71;}
	.st2{fill:#F28C71;stroke:#BC6557;stroke-miterlimit:10;}
	.st3{fill:#26293D;stroke:#000000;stroke-miterlimit:10;}
</style>
<g>
	<path class="st0" d="M468.4,432.2H152.8c-69,0-125.4-56.4-125.4-125.4V144.1c0-69,56.4-125.4,125.4-125.4h315.6
		c69,0,125.4,56.4,125.4,125.4v162.7C593.8,375.7,537.3,432.2,468.4,432.2z"/>
</g>
<path class="st1" d="M441.1,438.1H152.8c-69,0-125.4-56.4-125.4-125.4V150.1c0-69,56.4-125.4,125.4-125.4h288.3
	c69,0,125.4,56.4,125.4,125.4v162.7C566.5,381.7,510,438.1,441.1,438.1z"/>
<path class="st0" d="M543.8,262h-92.5c-27.5,0-50-22.5-50-50v0c0-27.5,22.5-50,50-50h92.5c27.5,0,50,22.5,50,50v0
	C593.8,239.5,571.3,262,543.8,262z"/>
<path class="st2" d="M543.8,268h-77.4c-27.5,0-50-22.5-50-50v0c0-27.5,22.5-50,50-50h77.4c27.5,0,50,22.5,50,50v0
	C593.8,245.5,571.3,268,543.8,268z"/>
<g>
	<path class="st3" d="M347.6,208.2C368.4,164,350,111.1,307.8,90c-43.2-21.6-94.3-1.2-115.8,36.5c-24.7,43.2,0.4,89.7,1.7,92.1
		l12.2,3.2c-1.1-2.2-22.1-44.6-1.4-84c18-34.4,60.8-53,96.9-33.3c35.3,19.2,50.7,67.5,33.3,107.7L347.6,208.2z"/>
</g>
<path class="st3" d="M302.9,365.8h-68.3c-44.5,0-81-36.4-81-81v-23.5c0-44.5,36.4-81,81-81h68.3c44.5,0,81,36.4,81,81v23.5
	C383.8,329.3,347.4,365.8,302.9,365.8z"/>
<g>
	<polygon class="st1" points="269.8,195.9 226.6,263.3 269.8,285.1 310.8,263.3 	"/>
	<polygon class="st1" points="226.6,274.8 268.7,297.5 310.8,277.5 269.8,328.1 	"/>
</g>
</svg>
