<?xml version="1.0" standalone="no"?>
<!DOCTYPE svg PUBLIC "-//W3C//DTD SVG 20010904//EN"
 "http://www.w3.org/TR/2001/REC-SVG-20010904/DTD/svg10.dtd">
<svg version="1.0" xmlns="http://www.w3.org/2000/svg"
 width="44.000000pt" height="42.000000pt" viewBox="0 0 44.000000 42.000000"
 preserveAspectRatio="xMidYMid meet">
<metadata>
Created by potrace 1.15, written by Peter Selinger 2001-2017
</metadata>
<g transform="translate(0.000000,42.000000) scale(0.100000,-0.100000)"
fill="#000000" stroke="none">
<path d="M84 384 c-19 -19 -34 -39 -34 -44 0 -4 -10 -10 -21 -13 -17 -5 -20
-11 -17 -32 3 -14 1 -28 -3 -31 -5 -3 -9 -26 -9 -50 0 -35 9 -62 40 -114 56
-95 64 -100 183 -100 96 0 99 1 125 29 61 65 72 80 72 99 0 12 5 24 10 27 20
13 11 95 -16 142 -15 24 -30 59 -33 76 -8 39 -27 44 -165 46 l-99 1 -33 -36z
m230 -4 c-1 -8 -5 -22 -8 -30 -4 -9 0 -24 8 -35 12 -17 18 -18 34 -8 17 10 22
6 46 -41 31 -62 28 -84 -13 -78 -36 5 -46 -17 -31 -68 8 -29 7 -39 -8 -59 -25
-34 -40 -37 -35 -6 5 21 0 27 -30 40 -37 15 -62 12 -70 -9 -8 -20 7 -36 49
-52 39 -14 38 -14 -45 -12 -75 3 -85 6 -103 28 -37 48 -88 143 -88 166 0 28
16 40 35 24 21 -18 45 -5 45 25 0 14 -4 25 -9 25 -18 0 -21 33 -4 60 24 41 48
49 143 47 69 -2 85 -5 84 -17z"/>
<path d="M173 360 c-28 -11 -31 -50 -5 -57 17 -4 16 -8 -10 -35 -28 -30 -38
-81 -18 -93 17 -11 11 -23 -15 -29 -34 -9 -48 -38 -31 -62 14 -18 16 -18 50
-1 20 9 36 23 36 30 0 7 14 14 33 15 51 4 61 10 80 44 10 18 31 41 47 50 33
19 38 39 15 58 -12 10 -22 10 -39 2 -33 -15 -98 15 -90 41 5 17 -11 48 -25 46
-3 0 -16 -4 -28 -9z"/>
</g>
</svg>
