<!DOCTYPE svg PUBLIC "-//W3C//DTD SVG 20010904//EN" "http://www.w3.org/TR/2001/REC-SVG-20010904/DTD/svg10.dtd">
<svg version="1.0" xmlns="http://www.w3.org/2000/svg" width="1000px" height="1000px" viewBox="0 0 10000 10000" preserveAspectRatio="xMidYMid meet">
<g id="layer101" fill="#fdd600" stroke="none">
 <path d="M4490 9539 c-1419 -126 -2679 -872 -3470 -2054 -408 -610 -668 -1333 -752 -2090 -18 -162 -18 -798 0 -960 176 -1591 1118 -2954 2532 -3664 505 -253 978 -394 1565 -468 201 -26 839 -26 1040 0 572 72 1047 212 1532 451 471 233 858 510 1228 881 756 755 1218 1722 1337 2800 8 77 13 248 13 480 0 389 -7 481 -56 777 -209 1253 -937 2376 -1999 3085 -654 436 -1396 693 -2200 763 -135 12 -634 11 -770 -1z"/>
 </g>
<g id="layer102" fill="#ffffff" stroke="none">
 <path d="M3929 8226 c-111 -43 -202 -125 -244 -219 -40 -91 -45 -152 -45 -523 0 -193 -3 -366 -6 -383 l-6 -31 -494 0 -494 0 0 -120 0 -120 495 0 495 0 0 -70 0 -70 -495 0 -495 0 0 -120 0 -120 493 0 492 0 0 -1482 c0 -1600 4 -1750 50 -1974 92 -449 381 -889 780 -1190 207 -155 346 -231 586 -317 363 -131 759 -141 1086 -26 125 44 312 142 405 212 327 246 537 569 620 952 29 132 31 429 5 575 -47 259 -94 402 -217 657 -164 341 -364 623 -671 947 -321 338 -714 623 -907 657 -131 23 -268 -26 -364 -130 -183 -197 -123 -511 123 -640 179 -95 399 -279 617 -514 223 -242 431 -556 527 -797 65 -166 95 -303 95 -444 0 -199 -48 -331 -175 -479 -101 -119 -211 -189 -364 -233 -86 -24 -103 -26 -220 -21 -205 9 -392 74 -593 206 -197 131 -404 379 -484 582 -52 133 -66 213 -75 424 -9 235 -12 2921 -3 2989 l7 46 293 0 294 0 0 120 0 120 -295 0 -295 0 0 70 0 70 295 0 295 0 0 120 0 120 -296 0 -295 0 3 433 3 432 -32 67 c-41 88 -113 160 -201 201 -58 27 -79 32 -162 34 -62 2 -107 -2 -131 -11z"/>
 </g>

</svg>