<?xml version="1.0" encoding="UTF-8"?>
<svg width="28px" height="28px" viewBox="0 0 58 58" version="1.1" xmlns="http://www.w3.org/2000/svg" xmlns:xlink="http://www.w3.org/1999/xlink">
    <!-- Generator: Sketch 51.1 (57501) - http://www.bohemiancoding.com/sketch -->
    <title>Group 10</title>
    <desc>Created with Sketch.</desc>
    <defs></defs>
    <g id="Social" stroke="none" stroke-width="1" fill="none" fill-rule="evenodd">
        <g id="Group-10">
            <g id="Group-5">
                <circle id="Oval-2" cx="29.2787385" cy="30.5246423" r="24.9180753"></circle>
                <path d="M9.20605828,46.7367721 L9.20605828,47.1220549 L5.27624919,47.1220549 L5.27624919,39.8495727 L5.15437314,40.2518766 L1.39627547,39.0924222 L3.51931011,32.0850654 L3.25796133,32.476118 L0,30.2586146 L4.07094001,24.1682336 L3.68269777,24.4855762 L1.20958899,21.403747 L7.06796711,16.61649 L6.31935716,16.90657 L4.9110499,13.2043505 L11.9083443,10.4939131 L11.0905627,10.5516118 L10.8164345,6.59572022 L18.1424626,6.07878359 L17.4810499,5.92468492 L18.36503,2.06077941 L25.3632536,3.69111247 L24.9222642,3.43426693 L26.8872045,0 L32.9908699,3.55601108 L32.7532931,3.29896359 L35.6273721,0.594461977 L40.3804806,5.73788554 L40.2792746,5.52826634 L43.8113355,3.78989256 L46.8605237,10.0985043 L46.8327921,9.92197528 L50.7142139,9.30162824 L51.8577846,16.5876407 L51.939121,16.0689298 L55.8205428,16.6893346 L54.6599615,24.0844263 L54.9468548,23.4905629 L58.4789157,25.2290233 L55.2085895,31.9951997 L55.6864591,31.4780756 L58.5605381,34.1825556 L53.4796536,39.6808042 L54.0947517,39.3223513 L56.059692,42.7567192 L49.6728499,46.4777052 L50.3153936,46.3279772 L51.1993738,50.1919115 L44.1422563,51.8360346 L44.6860241,51.8744042 L44.4118531,55.8302236 L37.3477312,55.3317073 L37.7076701,55.4711938 L36.2993628,59.1734277 L29.5372865,56.5540532 L29.9645531,56.9032743 L27.4914386,59.9851034 L21.9100991,55.4243136 L22.1856996,55.8364262 L18.9276668,58.0539296 L14.9380347,52.0851485 L15.0566801,52.4766338 L11.2965626,53.6366652 L9.20605828,46.7367721 Z M9.20605828,42.0246676 L11.6605326,41.2675171 L13.5680656,47.5635938 L15.6903612,46.1191081 L19.3174815,51.5455219 L20.9374922,49.5267903 L25.964343,53.6343573 L26.8634754,51.270732 L32.9211121,53.6171919 L33.0986515,51.0566701 L39.5806959,51.5140761 L38.9974748,48.9646612 L45.3518681,47.4842581 L44.0353324,45.1830917 L49.7072999,41.8785458 L47.7646593,40.0505083 L52.2451691,35.2020907 L49.8549635,34.0256152 L52.7364757,28.0639022 L50.1221302,27.6460197 L51.1496284,21.0995309 L48.649783,21.4989498 L47.6227136,14.9552016 L45.3711659,16.0633042 L42.5103809,10.1444901 L40.6752359,11.8713963 L36.2484739,7.08106684 L34.9818265,9.2949352 L29.3780443,6.03021575 L28.7989687,8.56141226 L22.4948925,7.09276524 L22.6778638,9.73397865 L16.2066834,10.1906058 L17.1635661,12.705964 L11.0703786,15.0661273 L12.7097587,17.1090922 L7.5943098,21.2892152 L9.75335691,22.7586556 L6.0654273,28.2759447 L8.55046352,29.0426156 L6.62411874,35.4007183 L9.20605828,35.4007183 L9.20605828,42.0246676 Z" id="path1_fill" fill="#FF3B81" fill-rule="nonzero"></path>
                <path d="M40.3931179,17.042435 L38.3983605,35.7836151 L34.4438489,36.1421154 L34.5663327,17.136801 L40.3931179,17.042435 Z M39.2907433,37.5576845 L39.028281,44.10671 L33.5864565,43.3894235 L33.848922,37.1047367 L39.2907433,37.5576845 Z" id="path3_fill" fill="#FF3B81" fill-rule="nonzero" transform="translate(36.989787, 30.574572) rotate(6.000000) translate(-36.989787, -30.574572) "></path>
                <text id="S" font-family="AvenirNext-Bold, Avenir Next" font-size="33.2839883" font-weight="bold" fill="#FF3B81">
                    <tspan x="14.2226365" y="40.3016035">S</tspan>
                </text>
            </g>
        </g>
    </g>
</svg>